<?xml version="1.0" standalone="no"?>
<!DOCTYPE svg PUBLIC "-//W3C//DTD SVG 20010904//EN"
 "http://www.w3.org/TR/2001/REC-SVG-20010904/DTD/svg10.dtd">
<svg version="1.0" xmlns="http://www.w3.org/2000/svg"
 width="489.000000pt" height="135.000000pt" viewBox="0 0 489.000000 135.000000"
 preserveAspectRatio="xMidYMid meet">

<g transform="translate(0.000000,135.000000) scale(0.100000,-0.100000)"
fill="#000000" stroke="none">
<path d="M1439 1340 c-62 -11 -138 -45 -171 -77 -15 -14 -37 -48 -50 -77 -22
-49 -23 -60 -23 -316 0 -248 1 -268 21 -310 28 -60 67 -97 134 -129 l55 -26
405 0 405 0 55 26 c67 32 106 69 134 129 20 42 21 62 21 310 0 258 -1 266 -24
318 -29 64 -72 103 -148 133 -56 23 -68 23 -413 25 -195 1 -376 -1 -401 -6z
m635 -250 c50 -25 67 -68 73 -178 7 -122 -8 -208 -42 -242 l-25 -25 -269 0
-269 0 -26 24 c-31 29 -46 96 -46 199 1 145 25 204 91 228 52 20 473 14 513
-6z"/>
<path d="M10 876 l0 -466 489 0 c413 0 495 2 532 15 93 33 128 96 129 228 0
129 -38 198 -116 213 -19 3 -34 9 -34 13 0 3 17 14 38 23 54 25 75 67 80 160
8 139 -32 215 -135 254 -44 17 -91 19 -515 22 l-468 3 0 -465z m819 220 c14
-13 21 -31 21 -57 0 -67 -8 -69 -307 -69 l-263 0 0 68 c0 38 3 72 7 76 4 4
123 6 264 4 236 -3 259 -5 278 -22z m-7 -326 c62 -18 79 -82 31 -119 -25 -21
-35 -21 -297 -19 l-271 3 -3 59 c-2 32 -1 65 2 72 4 11 53 14 253 14 141 0
264 -5 285 -10z"/>
<path d="M2360 1322 c0 -4 115 -141 255 -304 l255 -298 0 -155 0 -155 140 0
140 0 0 156 0 156 253 294 c138 162 254 299 255 304 2 6 -62 10 -166 10 l-169
0 -154 -185 c-84 -102 -157 -185 -161 -185 -4 0 -76 83 -160 185 l-152 185
-168 0 c-92 0 -168 -3 -168 -8z"/>
<path d="M3690 861 l0 -471 473 0 c391 0 483 3 532 15 84 22 134 59 168 124
l27 55 0 275 c0 314 -3 328 -79 393 -81 69 -98 71 -638 75 l-483 5 0 -471z
m866 214 c56 -23 66 -61 62 -231 l-3 -144 -33 -32 -32 -33 -290 -3 -290 -3 0
231 0 230 275 0 c219 0 283 -3 311 -15z"/>
<path d="M548 265 c-74 -41 -86 -181 -21 -241 19 -18 37 -24 70 -24 57 0 81
14 99 55 19 47 18 55 -10 55 -17 0 -29 -9 -38 -27 -18 -38 -69 -44 -92 -11
-41 58 -1 169 57 154 14 -3 29 -15 32 -26 4 -14 15 -20 36 -20 27 0 30 3 24
23 -19 61 -101 94 -157 62z"/>
<path d="M934 270 c-60 -24 -89 -119 -60 -195 21 -53 52 -75 108 -75 52 0 85
21 104 66 51 122 -43 248 -152 204z m76 -50 c24 -13 44 -74 35 -108 -15 -61
-78 -84 -109 -40 -24 34 -21 107 6 135 24 25 40 28 68 13z"/>
<path d="M2054 271 c-79 -34 -98 -175 -33 -241 25 -25 39 -30 78 -30 55 0 82
17 105 64 29 62 15 148 -32 189 -24 22 -87 31 -118 18z m76 -51 c11 -6 24 -27
29 -47 18 -66 -9 -123 -59 -123 -84 0 -85 178 -2 180 7 0 22 -5 32 -10z"/>
<path d="M3740 268 c-62 -33 -88 -126 -56 -202 19 -45 52 -66 104 -66 56 0 87
22 108 75 35 93 -10 191 -91 201 -23 3 -51 -1 -65 -8z m87 -60 c18 -16 23 -32
23 -68 0 -57 -22 -90 -59 -90 -52 0 -82 61 -61 124 19 57 58 71 97 34z"/>
<path d="M1260 135 l0 -135 30 0 c30 0 30 0 30 56 l0 55 36 -3 c41 -3 50 -15
59 -70 5 -32 10 -38 31 -38 24 0 25 1 18 53 -4 28 -11 57 -15 63 -6 7 -3 23 6
40 20 39 19 56 -6 88 -19 24 -26 26 -105 26 l-84 0 0 -135z m140 81 c6 -8 10
-25 8 -38 -2 -19 -10 -23 -45 -26 l-43 -3 0 40 c0 40 1 41 34 41 18 0 39 -7
46 -14z"/>
<path d="M1640 135 l0 -135 25 0 c23 0 25 3 25 50 l0 50 45 0 c84 0 125 80 74
144 -19 24 -26 26 -95 26 l-74 0 0 -135z m124 79 c18 -17 19 -24 10 -48 -4
-11 -19 -16 -45 -16 -38 0 -39 1 -39 33 0 19 3 37 7 40 12 13 51 7 67 -9z"/>
<path d="M2380 135 l0 -135 30 0 c30 0 30 1 30 55 l0 55 33 0 c40 0 57 -15 57
-51 0 -42 10 -59 36 -59 22 0 23 2 17 47 -3 27 -10 56 -15 67 -7 12 -6 22 1
29 6 6 11 30 11 52 0 63 -19 75 -118 75 l-82 0 0 -135z m138 83 c17 -17 15
-55 -4 -62 -9 -3 -29 -6 -45 -6 -27 0 -29 2 -29 40 0 39 1 40 33 40 18 0 38
-5 45 -12z"/>
<path d="M2780 148 c-24 -68 -45 -129 -48 -136 -3 -8 6 -12 26 -12 26 0 31 5
37 30 6 28 9 30 55 30 45 0 48 -2 54 -30 5 -25 10 -30 35 -30 l30 0 -46 135
c-43 130 -46 135 -73 135 -26 0 -29 -6 -70 -122z m87 2 l10 -40 -29 0 c-24 0
-29 4 -24 16 3 9 9 27 12 40 9 35 18 30 31 -16z"/>
<path d="M3100 245 c0 -22 4 -25 35 -25 l35 0 0 -110 0 -110 25 0 25 0 0 109
0 110 38 3 c30 2 38 7 40 26 3 22 1 22 -97 22 l-101 0 0 -25z"/>
<path d="M3450 135 l0 -135 25 0 25 0 0 135 0 135 -25 0 -25 0 0 -135z"/>
<path d="M4070 135 l0 -135 25 0 c24 0 24 2 27 88 l3 87 48 -87 c44 -79 51
-88 78 -88 l29 0 0 135 0 135 -25 0 c-24 0 -24 -2 -27 -87 l-3 -88 -48 88
c-44 78 -51 87 -78 87 l-29 0 0 -135z"/>
</g>
</svg>
