<?xml version="1.0" standalone="no"?>
<!DOCTYPE svg PUBLIC "-//W3C//DTD SVG 20010904//EN"
 "http://www.w3.org/TR/2001/REC-SVG-20010904/DTD/svg10.dtd">
<svg version="1.0" xmlns="http://www.w3.org/2000/svg"
 width="394.000000pt" height="162.000000pt" viewBox="0 0 394.000000 162.000000"
 preserveAspectRatio="xMidYMid meet">

<g transform="translate(0.000000,162.000000) scale(0.100000,-0.100000)"
fill="#000000" stroke="none">
<path d="M955 1559 c-46 -13 -109 -72 -136 -126 -23 -46 -24 -57 -27 -326 -2
-179 1 -296 8 -331 15 -72 57 -129 122 -163 l53 -28 358 -3 357 -3 0 90 0 91
-340 0 c-327 0 -341 1 -360 20 -19 19 -20 33 -20 294 0 255 1 275 19 297 l19
24 436 3 436 3 0 -411 0 -410 90 0 90 0 0 410 0 410 110 0 109 0 3 -328 3
-329 30 -49 c24 -37 45 -56 90 -79 l59 -30 361 -3 c233 -2 371 1 389 7 51 20
57 58 54 302 l-3 219 -28 27 -27 28 -300 3 -300 3 0 -91 0 -90 240 0 240 0 0
-115 0 -115 -297 0 c-164 0 -303 4 -309 8 -30 20 -34 55 -34 315 0 246 1 266
19 288 l19 24 386 3 386 3 0 84 0 85 -1137 -1 c-627 0 -1152 -5 -1168 -10z"/>
<path d="M46 228 c-11 -15 -16 -45 -16 -85 0 -89 16 -103 115 -103 68 0 75 2
75 20 0 18 -7 20 -75 20 l-75 0 0 65 0 65 75 0 c68 0 75 2 75 20 0 18 -7 20
-79 20 -71 0 -82 -2 -95 -22z"/>
<path d="M495 225 c-21 -20 -25 -34 -25 -80 0 -46 4 -60 25 -80 20 -21 34 -25
85 -25 51 0 65 4 85 25 21 20 25 34 25 80 0 46 -4 60 -25 80 -20 21 -34 25
-85 25 -51 0 -65 -4 -85 -25z m145 -25 c12 -12 20 -33 20 -55 0 -48 -29 -75
-80 -75 -51 0 -80 27 -80 75 0 48 29 75 80 75 27 0 47 -7 60 -20z"/>
<path d="M957 243 c-4 -3 -7 -51 -7 -105 0 -91 1 -98 20 -98 18 0 20 7 20 72
l0 72 74 -73 c42 -41 79 -70 85 -67 7 5 11 45 11 107 0 92 -1 99 -20 99 -18 0
-20 -7 -20 -72 l0 -72 -73 72 c-74 74 -79 77 -90 65z"/>
<path d="M1442 234 c-13 -9 -22 -25 -22 -42 0 -48 14 -57 92 -62 65 -4 73 -7
73 -25 0 -18 -8 -20 -82 -23 -75 -3 -83 -5 -83 -22 0 -18 7 -20 78 -20 95 0
122 15 122 65 0 44 -20 55 -98 55 -46 0 -61 4 -66 16 -11 28 3 34 75 34 62 0
69 2 69 20 0 18 -7 20 -68 20 -45 0 -75 -5 -90 -16z"/>
<path d="M1880 155 c0 -112 3 -115 109 -115 64 0 71 2 71 20 0 18 -7 20 -75
20 l-75 0 0 65 0 65 74 0 c65 0 74 2 79 20 5 19 0 20 -89 20 l-94 0 0 -95z"/>
<path d="M2327 243 c-4 -3 -7 -51 -7 -105 0 -91 1 -98 20 -98 18 0 20 7 20 75
l0 75 71 -75 c39 -41 78 -75 85 -75 11 0 14 23 14 105 0 87 -3 105 -15 105
-12 0 -15 -14 -15 -70 0 -38 -3 -70 -8 -70 -4 0 -39 32 -77 70 -70 71 -76 75
-88 63z"/>
<path d="M2812 234 c-27 -19 -29 -64 -4 -87 11 -10 40 -17 82 -19 59 -3 65 -5
68 -25 3 -22 1 -23 -82 -23 -79 0 -86 -2 -86 -20 0 -18 7 -20 84 -20 80 0 86
2 105 27 42 52 6 93 -80 93 -57 0 -85 15 -71 37 4 7 38 13 77 15 57 2 70 6 73
21 3 15 -5 17 -70 17 -50 0 -81 -5 -96 -16z"/>
<path d="M3250 179 c0 -39 5 -79 10 -90 17 -31 64 -49 130 -49 l60 0 0 105 c0
87 -3 105 -15 105 -12 0 -15 -16 -15 -85 l0 -85 -54 0 c-71 0 -86 19 -86 107
0 49 -3 63 -15 63 -12 0 -15 -15 -15 -71z"/>
<path d="M3730 230 c-11 -11 -20 -31 -20 -43 0 -39 29 -56 100 -59 58 -3 65
-5 68 -25 3 -21 -1 -22 -80 -25 -69 -3 -83 -6 -86 -20 -3 -16 6 -18 80 -18 71
0 88 3 106 20 25 24 28 48 8 76 -11 14 -30 20 -83 24 -61 4 -68 7 -71 28 -3
21 0 22 72 22 69 0 76 2 76 20 0 18 -7 20 -75 20 -62 0 -79 -4 -95 -20z"/>
<path d="M1930 145 c0 -12 13 -15 60 -15 47 0 60 3 60 15 0 12 -13 15 -60 15
-47 0 -60 -3 -60 -15z"/>
</g>
</svg>
