<svg width="158" height="48" viewBox="0 0 158 48" fill="none" xmlns="http://www.w3.org/2000/svg">
<g clip-path="url(#clip0_120_2088)">
<rect width="158" height="48" fill="white"/>
<g clip-path="url(#clip1_120_2088)">
<path d="M64.6214 20.5021V31.8049H61.0207V17.5971H68.4495C71.6061 17.5971 72.6757 19.8305 72.6757 21.8474V31.8049H69.0861V21.8693C69.0861 21.014 68.6529 20.5021 67.5942 20.5021H64.6214ZM89.0951 20.3315C87.8526 20.3315 86.9076 20.9571 86.5095 21.8233C86.282 22.3024 86.1682 22.8252 86.1682 23.3612H91.7048C91.637 21.8233 90.9304 20.3315 89.0951 20.3315ZM86.1661 25.8112C86.1661 27.6465 87.3057 29.0137 89.3554 29.0137C90.9392 29.0137 91.7245 28.5696 92.6476 27.6465L94.8701 29.7771C93.457 31.1793 91.9542 32.0324 89.3226 32.0324C85.8817 32.0324 82.5895 30.1533 82.5895 24.6846C82.5895 20.0012 85.4617 17.3587 89.2439 17.3587C93.0829 17.3587 95.2945 20.4583 95.2945 24.514V25.8024H86.1682L86.1661 25.8112ZM79.5467 31.7808C76.6176 31.7808 75.3773 29.7421 75.3773 27.7252V13.723H78.967V17.5971H81.6664V20.5021H78.967V27.4977C78.967 28.329 79.3542 28.7862 80.2095 28.7862H81.6686V31.783L79.5467 31.7808ZM57.8204 15.6371H54.1979V12.1852H57.8204V15.6371ZM57.8314 31.9515C55.1189 31.689 54.1979 30.0483 54.1979 28.1452V17.5949H57.8204V31.9624L57.8314 31.9515ZM101.013 31.6452C98.3001 31.3827 97.3901 29.7421 97.3901 27.8521V11.7083H101.013V31.6583V31.6452ZM113.691 14.0424C110.41 -1.9876 79.2951 -3.0026 59.2554 9.19928V10.5555C79.2732 0.25678 107.689 0.324593 110.274 15.0683C111.13 19.9552 108.382 25.0368 103.474 27.9658V31.794C109.386 29.6283 115.448 22.6108 113.694 14.0424H113.691ZM77.2454 42.0687C63.4139 43.344 48.9895 41.3271 46.9726 30.5274C45.9926 25.1943 48.4317 19.544 51.632 16.0352V14.1671C45.8439 19.2487 42.7004 25.6865 44.5117 33.2858C46.8239 43.0377 59.1986 48.5633 78.0767 46.7302C85.5514 46.0018 95.3382 43.5977 102.128 39.8593V34.5612C95.9639 38.2405 85.7439 41.2833 77.2454 42.0687ZM105.204 12.7671C105.204 12.5965 105.09 12.5396 104.863 12.5396H104.635V13.0405H104.863C105.09 13.0405 105.204 12.9727 105.204 12.8021V12.7671ZM105.558 14.0074H105.285C105.263 14.0074 105.239 13.9965 105.228 13.9724L104.863 13.3468C104.852 13.3358 104.828 13.3249 104.806 13.3249H104.646V13.9396C104.646 13.9746 104.611 14.0074 104.578 14.0074H104.34C104.305 14.0074 104.272 13.9724 104.272 13.9396V12.3777C104.272 12.299 104.318 12.253 104.386 12.2399C104.534 12.229 104.681 12.229 104.83 12.229C105.274 12.229 105.547 12.3537 105.547 12.7758V12.7977C105.547 13.0602 105.409 13.1958 105.217 13.2658L105.593 13.9046C105.593 13.9155 105.604 13.9396 105.604 13.9505C105.615 13.9724 105.593 14.0074 105.558 14.0074ZM104.919 11.9337C104.259 11.9337 103.723 12.4696 103.723 13.1302C103.734 13.7908 104.27 14.3268 104.93 14.3268C105.58 14.3268 106.116 13.7908 106.116 13.1412C106.116 12.4805 105.58 11.9337 104.919 11.9337ZM104.919 14.5783C104.121 14.5783 103.474 13.9396 103.474 13.1433C103.474 12.3471 104.123 11.6974 104.919 11.6974C105.705 11.6974 106.365 12.3471 106.365 13.1433C106.365 13.9396 105.705 14.5783 104.919 14.5783Z" fill="black"/>
</g>
</g>
<defs>
<clipPath id="clip0_120_2088">
<rect width="158" height="48" fill="white"/>
</clipPath>
<clipPath id="clip1_120_2088">
<rect width="70" height="70" fill="white" transform="translate(44 -11)"/>
</clipPath>
</defs>
</svg>
