<svg xmlns="http://www.w3.org/2000/svg" xmlns:xlink="http://www.w3.org/1999/xlink" width="90" height="47" viewBox="0 0 90 47"><defs><path id="a" d="M0 .068h89.636v46.454H0z"/></defs><g fill="none" fill-rule="evenodd"><path fill="#101828" d="M41.634 19.665a7.94 7.94 0 0 1 7.847-6.571c3.85 0 6.18 2.741 5.5 6.57a8.038 8.038 0 0 1-2.462 4.496l.746 1.084-2.17 1.543-.826-1.182a8.07 8.07 0 0 1-3.118.63c-3.868 0-6.196-2.743-5.517-6.57m7.301 3.96l-1.106-1.638 2.169-1.543 1.108 1.638a5.34 5.34 0 0 0 1.08-2.417c.422-2.38-.774-4.17-3.13-4.17-2.374 0-4.206 1.79-4.627 4.17-.42 2.36.773 4.169 3.147 4.169.48 0 .934-.076 1.359-.209M57.477 26.008l1.83-10.325h-3.733l.423-2.381h10.186l-.42 2.381h-3.716l-1.83 10.325zM64.695 24.217l1.87-2.116c.734.936 1.99 1.733 3.753 1.733 1.512 0 2.339-.666 2.47-1.408.393-2.21-7.236-.666-6.388-5.448.375-2.114 2.524-3.865 5.531-3.865 2.03 0 3.608.61 4.665 1.77l-1.871 2.019c-.865-.951-2.166-1.39-3.468-1.39-1.15 0-1.888.495-2.024 1.258-.354 2 7.222.647 6.38 5.389-.413 2.323-2.409 4.076-5.837 4.076-2.47 0-4.087-.82-5.081-2.018"/><g transform="translate(0 .367)"><mask id="b" fill="#fff"><use xlink:href="#a"/></mask><path fill="#101828" d="M59.707.068c-19.34 0-37.499 8.233-40.554 18.389-1.366 4.535.52 8.684 4.74 11.892a33.965 33.965 0 0 0-3.434-1.096c-8.514-2.202-13.403-.212-13.859 3.34-3.864.848-6.43 2.508-6.592 4.646-.15 1.95 1.745 3.91 4.882 5.45-.863-.788-1.314-1.625-1.252-2.455.147-1.956 3.138-3.382 7.481-3.892 14.2.47 24.805 10.201 40.396 10.18 20.688-.026 27.235-6.72 27.556-7.474.162-.375-.194-.59-.64-.59-1.007 0-1.195.7-2.906 1.566-1.505.736-6.127 2.786-14.91 2.477-13.111-.935-20.742-4.372-27.185-7.638 4.37 1.265 9.521 1.981 15.21 1.981 19.34 0 37.5-8.233 40.556-18.387C92.252 8.301 79.052.068 59.707.068M87.25 19.192c-2.167 7.197-16.244 13.032-31.447 13.032-15.204 0-25.77-5.835-23.604-13.032 2.166-7.195 16.245-13.03 31.448-13.03 15.202 0 25.77 5.835 23.603 13.03" mask="url(#b)"/></g><path fill="#101828" d="M84.628 3.314c.04-.146.097-.284.173-.409a1.673 1.673 0 0 1 .618-.614c.126-.075.263-.133.408-.174a1.765 1.765 0 0 1 .916 0 1.747 1.747 0 0 1 1.028.788 1.65 1.65 0 0 1 .234.863 1.648 1.648 0 0 1-.234.86 1.653 1.653 0 0 1-.27.348 1.956 1.956 0 0 1-.347.267 1.802 1.802 0 0 1-.411.174 1.747 1.747 0 0 1-.916 0 1.792 1.792 0 0 1-.756-.441 1.613 1.613 0 0 1-.27-.347 1.682 1.682 0 0 1-.235-.86c0-.157.021-.31.062-.455zm.226.857a1.527 1.527 0 0 0 .378.66 1.493 1.493 0 0 0 .656.384c.126.034.26.052.397.052.207 0 .4-.04.583-.117a1.458 1.458 0 0 0 .79-.796 1.45 1.45 0 0 0 .116-.585 1.539 1.539 0 0 0-.202-.765c-.064-.11-.141-.21-.232-.306-.09-.089-.19-.168-.3-.235a1.454 1.454 0 0 0-.356-.148 1.438 1.438 0 0 0-.98.063c-.181.08-.337.185-.472.322a1.559 1.559 0 0 0-.314.483c-.077.18-.115.378-.115.585 0 .14.015.273.05.403zm1.09.638h-.364V2.72h.677c.27 0 .47.047.6.147.13.096.194.242.194.43 0 .149-.04.271-.125.375a.649.649 0 0 1-.375.214c.027.014.05.035.068.057.02.023.04.051.056.082l.537.783h-.348a.13.13 0 0 1-.116-.06l-.472-.706a.16.16 0 0 0-.052-.046c-.02-.012-.05-.017-.09-.017h-.19v.829zm.277-1.095a.786.786 0 0 0 .217-.025.353.353 0 0 0 .147-.071.287.287 0 0 0 .08-.115.46.46 0 0 0 .024-.156.46.46 0 0 0-.021-.152.242.242 0 0 0-.073-.109.356.356 0 0 0-.134-.063.864.864 0 0 0-.204-.022h-.312v.714l.276-.001z"/></g></svg>