<svg id="gitlab-logo-gray-rgb_Image" data-name="gitlab-logo-gray-rgb Image" xmlns="http://www.w3.org/2000/svg" viewBox="0 0 469 125"><defs><style>.cls-1 {fill: #101828;}.cls-1, .cls-2 {fill-rule: evenodd;}</style></defs><path class="cls-1" d="M62.13,77.38h-14.12c-.86,0-1.72-.54-2.24-1.44l-6.54-12.19c-.34-.9-.34-1.79,0-2.51l6.54-12.19c.52-.9,1.38-1.44,2.24-1.44h8.09c.86,0,1.72-.54,2.24-1.44l5.86-10.94c.52-.9-.17-1.97-1.03-1.97h-21.7c-1.89,0-3.45,1.07-4.48,2.69l-12.92,24.02c-.86,1.61-.86,3.58,0,5.19l12.92,23.84c.86,1.61,2.58,2.69,4.48,2.69h27.73c1.03,0,1.55-1.07,1.03-1.97l-6.03-11.11c-.17-.9-1.03-1.26-2.06-1.26h0Z"/><path class="cls-1" d="M100.37,43.86l-5.51-9.68c-.52-.9-1.72-.9-2.24,0l-23.25,43.02c-.34.9-.34,1.79,0,2.51l6.03,11.29c.52.9,1.72.9,2.24,0l22.73-41.94c.86-1.61.86-3.58,0-5.19Z"/><path class="cls-1" d="M72.29,63.58l6.89-12.73c.34-.72.34-1.79,0-2.69l-7.92-14.16c-.52-.9-1.72-.9-2.24,0l-6.72,12.37c-.34.72-.34,1.79,0,2.51l7.75,14.52c.52,1.07,1.89,1.07,2.24.18h0Z"/><path class="cls-1" d="M120.69,43.86l-5.51-9.68c-.52-.9-1.72-.9-2.24,0l-23.25,43.02c-.34.9-.34,1.79,0,2.51l6.2,11.29c.52.9,1.72.9,2.24,0l22.73-41.94c.86-1.61.86-3.58-.17-5.19Z"/><path class="cls-1" d="M315.02,41.43h3.27c.86,0,1.38.72,1.2,1.61l-8.95,42.12c-.17.9-.86,1.44-1.72,1.44h-4.31c-.86,0-1.55-.54-1.72-1.44l-7.75-31.01c-.17-.9-1.55-.9-1.72,0l-7.92,31.01c-.17.9-.86,1.44-1.72,1.44h-4.31c-.86,0-1.55-.54-1.72-1.44l-8.95-42.12c-.17-.72.34-1.61,1.2-1.61h3.62c.86,0,1.55.72,1.72,1.61l5.86,30.29c.17,1.07,1.55,1.07,1.72,0l7.92-30.47c.17-.9.86-1.44,1.72-1.44h3.27c.86,0,1.55.54,1.72,1.44l7.92,30.47c.17.9,1.55.9,1.72,0l5.86-30.29c.52-1.07,1.2-1.61,2.06-1.61h0Z"/><path class="cls-1" d="M151.06,66.16c0,3.05.17,5.38.52,7.35.34,1.79.86,3.4,1.72,4.48.86,1.07,2.06,1.79,3.45,2.15,1.55.36,3.45.54,5.69.54,1.2,0,6.2,0,8.61-.18.69,0,1.38.54,1.72,1.26l1.03,3.05c.34.9-.34,1.61-1.2,1.61-3.1,0-9.64.18-10.34.18-3.45,0-6.37-.36-8.78-1.07-2.24-.72-4.14-1.97-5.51-3.58s-2.41-3.77-2.93-6.27c-.52-2.51-.86-5.73-.86-9.5v-4.66c0-3.94.34-7.17,1.03-9.68s1.72-4.66,3.1-6.27c1.38-1.61,3.27-2.69,5.51-3.4,2.24-.72,5.17-1.07,8.44-1.07,1.03,0,7.23,0,10.34.18.86,0,1.38.9,1.2,1.79l-1.03,3.05c-.34.72-1.03,1.26-1.72,1.26-2.58,0-8.26-.18-8.78-.18-2.41,0-4.31.18-5.69.54-1.55.36-2.58,1.07-3.45,1.97-.86,1.07-1.38,2.51-1.72,4.3s-.34,4.3-.34,7.35v4.84h-.01Z"/><path class="cls-1" d="M192.39,52.72c2.58,0,4.83.18,6.72.72s3.45,1.26,4.48,2.51c1.2,1.26,2.06,2.87,2.58,4.84.52,1.97.86,4.48.86,7.53v3.4c0,3.05-.34,5.56-.86,7.53-.52,1.97-1.38,3.58-2.58,4.84-1.2,1.26-2.75,1.97-4.48,2.51-1.89.54-4.14.72-6.72.72s-4.83-.18-6.72-.72-3.45-1.26-4.48-2.51c-1.2-1.26-2.06-2.87-2.58-4.84-.52-1.97-.86-4.48-.86-7.53v-3.4c0-3.05.34-5.56.86-7.53.52-1.97,1.38-3.58,2.58-4.84,1.2-1.26,2.75-1.97,4.48-2.51,1.89-.54,4.14-.72,6.72-.72ZM200.66,68.31c0-2.15-.17-3.94-.34-5.38-.17-1.26-.69-2.33-1.2-3.05-.52-.72-1.38-1.26-2.41-1.44s-2.41-.36-4.14-.36-3.1.18-4.14.36-1.89.72-2.41,1.44c-.52.72-1.03,1.79-1.2,3.05s-.34,3.05-.34,5.38v3.4c0,2.15.17,3.94.34,5.38.17,1.26.69,2.33,1.2,3.05.52.72,1.37,1.26,2.41,1.44s2.41.36,4.14.36,3.1-.18,4.14-.36,1.89-.72,2.41-1.44c.52-.72,1.03-1.79,1.2-3.05s.34-3.05.34-5.38v-3.4Z"/><path class="cls-1" d="M214.61,86.41c-.69,0-1.2-.54-1.2-1.26v-21.15c0-1.97.34-3.58.86-4.84.52-1.26,1.38-2.33,2.41-3.23,1.03-.9,2.24-1.44,3.79-1.79,1.37-.36,3.1-.54,4.82-.54h6.37c.86,0,1.38.9,1.2,1.79l-1.03,2.51c-.34.72-1.03,1.26-1.72,1.26h-4.14c-1.38,0-2.58.18-3.27.36-.86.18-1.38.72-1.89,1.26-.34.54-.69,1.26-.69,1.97-.17.72-.17,1.61-.17,2.69v19.71c0,.72-.52,1.26-1.2,1.26h-4.14,0Z"/><path class="cls-1" d="M242.51,72.61c-.69,0-1.2.54-1.2,1.26,0,1.26.17,2.15.17,3.05.17,1.07.52,1.97,1.03,2.51.52.72,1.38,1.07,2.24,1.26,1.03.18,2.24.36,3.96.36.86,0,7.58,0,10.51-.18.69,0,1.55.54,1.72,1.26l.86,2.51c.34.9-.34,1.61-1.2,1.79-3.45,0-11.2.18-11.89.18-2.93,0-5.17-.36-7.06-1.07s-3.27-1.61-4.31-3.05c-1.03-1.26-1.72-2.87-2.06-4.66s-.52-3.94-.52-6.1v-3.58c0-2.33.17-4.48.52-6.45.34-1.97,1.03-3.58,2.06-4.84,1.03-1.26,2.41-2.33,4.31-3.05s4.31-1.07,7.23-1.07c2.75,0,5,.36,6.72.9,1.72.72,3.1,1.61,4.14,2.69,1.03,1.07,1.72,2.33,2.06,3.94.34,1.44.52,3.05.52,4.48v1.07c0,1.44-.17,2.69-.17,3.58-.17.9-.34,1.61-.86,1.97-.34.54-.86.9-1.38.9-.52.18-1.2.18-2.06.18l-15.33.18h0ZM248.89,57.91c-1.55,0-2.93.18-3.96.36-1.03.18-1.72.72-2.24,1.44s-.86,1.61-1.03,2.87c-.17.9-.17,2.15-.17,3.4,0,.72.52,1.26,1.2,1.26h12.74c.69,0,1.2-.54,1.2-1.26v-.9c0-1.44-.17-2.51-.34-3.58-.17-.9-.69-1.61-1.2-2.15-.52-.54-1.37-.9-2.41-1.07-1.03-.18-2.24-.36-3.79-.36h0Z"/><path class="cls-1" d="M329.66,72.61c-.69,0-1.2.54-1.2,1.26,0,1.26.17,2.15.34,3.05.17,1.07.52,1.97,1.03,2.51.52.72,1.38,1.07,2.24,1.26,1.03.18,2.24.36,3.96.36.86,0,7.58,0,10.51-.18.69,0,1.38.54,1.72,1.26l.86,2.51c.34.9-.34,1.61-1.2,1.79-3.45,0-11.2.18-11.89.18-2.93,0-5.17-.36-7.06-1.07-1.72-.72-3.27-1.61-4.31-3.05-1.03-1.26-1.72-2.87-2.06-4.66s-.52-3.94-.52-6.1v-3.58c0-2.33.17-4.48.52-6.45.34-1.97,1.03-3.58,2.06-4.84,1.03-1.26,2.41-2.33,4.31-3.05s4.31-1.07,7.23-1.07c2.75,0,5,.36,6.72.9,1.72.72,3.1,1.61,4.14,2.69,1.03,1.07,1.72,2.33,2.06,3.94s.52,3.05.52,4.48v1.07c0,1.44,0,2.69-.17,3.58s-.34,1.61-.86,1.97c-.34.54-.86.9-1.38.9-.52.18-1.2.18-1.89.18l-15.67.18h0ZM335.86,57.91c-1.55,0-2.93.18-3.96.36-1.03.18-1.72.72-2.24,1.44-.52.72-.86,1.61-1.03,2.87-.17.9-.17,2.15-.34,3.4,0,.72.52,1.26,1.2,1.26h12.75c.69,0,1.2-.54,1.2-1.26v-.9c0-1.44-.17-2.51-.34-3.58-.17-.9-.69-1.61-1.2-2.15-.52-.54-1.38-.9-2.41-1.07-.86-.18-2.06-.36-3.62-.36h0Z"/><path class="cls-1" d="M425.77,72.61c-.69,0-1.2.54-1.2,1.26,0,1.26.17,2.15.17,3.05.17,1.07.52,1.97,1.03,2.51.52.72,1.38,1.07,2.24,1.26,1.03.18,2.24.36,3.96.36.86,0,7.58,0,10.51-.18.69,0,1.55.54,1.72,1.26l.86,2.51c.34.9-.34,1.61-1.2,1.79-3.45,0-11.2.18-11.89.18-2.93,0-5.17-.36-7.06-1.07s-3.27-1.61-4.31-3.05c-1.03-1.26-1.72-2.87-2.06-4.66s-.52-3.94-.52-6.1v-3.58c0-2.33.17-4.48.52-6.45.34-1.97,1.03-3.58,2.06-4.84,1.03-1.26,2.41-2.33,4.31-3.05,1.89-.72,4.31-1.07,7.23-1.07,2.75,0,5,.36,6.72.9,1.72.72,3.1,1.61,4.14,2.69,1.03,1.07,1.72,2.33,2.06,3.94.34,1.44.52,3.05.52,4.48v1.07c0,1.44-.17,2.69-.17,3.58-.17.9-.34,1.61-.86,1.97-.34.54-.86.9-1.38.9-.52.18-1.2.18-2.06.18l-15.33.18h0ZM432.14,57.91c-1.55,0-2.93.18-3.96.36-1.03.18-1.72.72-2.24,1.44-.52.72-.86,1.61-1.03,2.87-.17.9-.17,2.15-.17,3.4,0,.72.52,1.26,1.2,1.26h12.75c.69,0,1.2-.54,1.2-1.26v-.9c0-1.44-.17-2.51-.34-3.58-.17-.9-.69-1.61-1.2-2.15-.52-.54-1.38-.9-2.41-1.07-1.2-.18-2.41-.36-3.79-.36h0Z"/><path class="cls-1" d="M381.85,81.04c0,1.97-.52,3.4-1.38,4.3s-2.58,1.26-4.82,1.26h-9.13c-4.31,0-7.23-.9-9.13-2.51-1.89-1.61-2.75-4.12-2.75-7.35v-1.44c0-3.58,1.03-6.1,3.1-7.53,2.06-1.44,5.17-2.33,9.47-2.33,2.41,0,4.31.18,5.69.54.69.18,1.38.36,1.72.72.52.18,1.2-.18,1.2-.9v-.36c0-1.07,0-1.97-.17-2.69s-.52-1.44-1.03-1.97c-.52-.54-1.38-.9-2.41-1.26-1.03-.18-2.41-.36-4.31-.36-1.37,0-7.4,0-10.16.18-.69,0-1.38-.54-1.72-1.26l-.86-2.51c-.34-.9.34-1.61,1.03-1.61,3.27,0,10.34-.18,11.54-.18,5,0,8.44.9,10.68,2.69,2.24,1.79,3.27,4.48,3.27,7.89l.17,16.67h0ZM360.49,76.73c0,1.44.34,2.51,1.2,3.4.86.72,2.41,1.07,4.65,1.07h8.09c.69,0,1.2-.54,1.2-1.26v-4.48c0-.72-.17-1.44-.17-2.15-.17-.54-.52-1.07-1.03-1.44-.52-.36-1.2-.72-2.06-.72-.86-.18-2.24-.18-3.79-.18h-1.38c-1.38,0-2.41,0-3.27.18-.86.18-1.55.36-2.06.72-.52.36-.86.9-1.03,1.44s-.34,1.26-.34,2.15v1.26h0Z"/><path class="cls-1" d="M391.84,55.04l7.23,21.69c.34.9,1.38.9,1.72,0l7.58-21.69c.17-.72,1.03-1.26,1.72-1.26h3.62c.86,0,1.38.9,1.2,1.79l-11.03,29.75c-.34.72-1.03,1.26-1.72,1.26h-4.31c-.69,0-1.38-.54-1.72-1.26l-11.03-29.75c-.34-.9.34-1.79,1.2-1.79h3.96c.69,0,1.38.54,1.55,1.26h.01Z"/></svg>