<svg width="158" height="48" viewBox="0 0 158 48" fill="none" xmlns="http://www.w3.org/2000/svg">
<g clip-path="url(#clip0_120_2088)">
<g clip-path="url(#clip1_120_2088)">
<path d="M64.6214 20.5021V31.8049H61.0207V17.5971H68.4495C71.6061 17.5971 72.6757 19.8305 72.6757 21.8474V31.8049H69.0861V21.8693C69.0861 21.014 68.6529 20.5021 67.5942 20.5021H64.6214ZM89.0951 20.3315C87.8526 20.3315 86.9076 20.9571 86.5095 21.8233C86.282 22.3024 86.1682 22.8252 86.1682 23.3612H91.7048C91.637 21.8233 90.9304 20.3315 89.0951 20.3315ZM86.1661 25.8112C86.1661 27.6465 87.3057 29.0137 89.3554 29.0137C90.9392 29.0137 91.7245 28.5696 92.6476 27.6465L94.8701 29.7771C93.457 31.1793 91.9542 32.0324 89.3226 32.0324C85.8817 32.0324 82.5895 30.1533 82.5895 24.6846C82.5895 20.0012 85.4617 17.3587 89.2439 17.3587C93.0829 17.3587 95.2945 20.4583 95.2945 24.514V25.8024H86.1682L86.1661 25.8112ZM79.5467 31.7808C76.6176 31.7808 75.3773 29.7421 75.3773 27.7252V13.723H78.967V17.5971H81.6664V20.5021H78.967V27.4977C78.967 28.329 79.3542 28.7862 80.2095 28.7862H81.6686V31.783L79.5467 31.7808ZM57.8204 15.6371H54.1979V12.1852H57.8204V15.6371ZM57.8314 31.9515C55.1189 31.689 54.1979 30.0483 54.1979 28.1452V17.5949H57.8204V31.9624L57.8314 31.9515ZM101.013 31.6452C98.3001 31.3827 97.3901 29.7421 97.3901 27.8521V11.7083H101.013V31.6583V31.6452ZM113.691 14.0424C110.41 -1.9876 79.2951 -3.0026 59.2554 9.19928V10.5555C79.2732 0.25678 107.689 0.324593 110.274 15.0683C111.13 19.9552 108.382 25.0368 103.474 27.9658V31.794C109.386 29.6283 115.448 22.6108 113.694 14.0424H113.691ZM77.2454 42.0687C63.4139 43.344 48.9895 41.3271 46.9726 30.5274C45.9926 25.1943 48.4317 19.544 51.632 16.0352V14.1671C45.8439 19.2487 42.7004 25.6865 44.5117 33.2858C46.8239 43.0377 59.1986 48.5633 78.0767 46.7302C85.5514 46.0018 95.3382 43.5977 102.128 39.8593V34.5612C95.9639 38.2405 85.7439 41.2833 77.2454 42.0687ZM105.204 12.7671C105.204 12.5965 105.09 12.5396 104.863 12.5396H104.635V13.0405H104.863C105.09 13.0405 105.204 12.9727 105.204 12.8021V12.7671ZM105.558 14.0074H105.285C105.263 14.0074 105.239 13.9965 105.228 13.9724L104.863 13.3468C104.852 13.3358 104.828 13.3249 104.806 13.3249H104.646V13.9396C104.646 13.9746 104.611 14.0074 104.578 14.0074H104.34C104.305 14.0074 104.272 13.9724 104.272 13.9396V12.3777C104.272 12.299 104.318 12.253 104.386 12.2399C104.534 12.229 104.681 12.229 104.83 12.229C105.274 12.229 105.547 12.3537 105.547 12.7758V12.7977C105.547 13.0602 105.409 13.1958 105.217 13.2658L105.593 13.9046C105.593 13.9155 105.604 13.9396 105.604 13.9505C105.615 13.9724 105.593 14.0074 105.558 14.0074ZM104.919 11.9337C104.259 11.9337 103.723 12.4696 103.723 13.1302C103.734 13.7908 104.27 14.3268 104.93 14.3268C105.58 14.3268 106.116 13.7908 106.116 13.1412C106.116 12.4805 105.58 11.9337 104.919 11.9337ZM104.919 14.5783C104.121 14.5783 103.474 13.9396 103.474 13.1433C103.474 12.3471 104.123 11.6974 104.919 11.6974C105.705 11.6974 106.365 12.3471 106.365 13.1433C106.365 13.9396 105.705 14.5783 104.919 14.5783Z" fill="#101828"/>
</g>
<g clip-path="url(#clip2_120_2088)">
<path d="M81.9677 42.4631C103.986 40.5163 121.048 29.9588 120.077 18.8823C119.106 7.80583 100.469 0.404797 78.4501 2.35164C56.4316 4.29848 39.3695 14.856 40.3408 25.9324C41.3122 37.0089 59.9492 44.4099 81.9677 42.4631Z" fill="white"/>
<path d="M120.433 18.3003C121.982 30.8194 103.638 43.3784 79.4563 46.3687C55.275 49.3589 34.6277 41.6241 33.0791 29.105C31.5306 16.5859 49.7558 4.02691 73.9371 1.03667C98.1184 -1.95356 118.925 5.78118 120.433 18.3003ZM78.4637 2.35238C56.4265 4.306 39.3527 14.8715 40.3454 25.9553C41.3381 37.0391 59.9604 44.4549 81.9975 42.5013C104.035 40.5477 121.108 29.9822 120.116 18.8984C119.123 7.77467 100.501 0.398757 78.4637 2.35238Z" fill="#101828"/>
<path d="M119.917 29.1846C122.461 29.1846 124.523 27.114 124.523 24.5597C124.523 22.0055 122.461 19.9348 119.917 19.9348C117.374 19.9348 115.312 22.0055 115.312 24.5597C115.312 27.114 117.374 29.1846 119.917 29.1846Z" fill="#101828"/>
<path d="M118.568 7.93408C118.766 7.93408 118.925 7.97395 119.124 8.09356C119.283 8.1733 119.441 8.33278 119.521 8.49226C119.64 8.69161 119.68 8.85109 119.68 9.05044C119.68 9.24979 119.64 9.44914 119.521 9.60861C119.441 9.76809 119.283 9.92757 119.124 10.0073C118.965 10.0871 118.766 10.1668 118.568 10.1668C118.369 10.1668 118.171 10.1269 118.012 10.0073C117.853 9.92757 117.694 9.76809 117.615 9.60861C117.535 9.44914 117.456 9.24979 117.456 9.05044C117.456 8.85109 117.496 8.65174 117.615 8.49226C117.734 8.33278 117.853 8.1733 118.052 8.09356C118.21 7.97395 118.409 7.93408 118.568 7.93408ZM118.568 8.01382C118.409 8.01382 118.25 8.05369 118.052 8.13343C117.853 8.21317 117.774 8.33278 117.655 8.49226C117.575 8.65174 117.535 8.81122 117.535 9.01057C117.535 9.17005 117.575 9.3694 117.655 9.52887C117.734 9.68835 117.853 9.80796 118.012 9.8877C118.171 9.96744 118.33 10.0073 118.528 10.0073C118.687 10.0073 118.885 9.96744 119.044 9.8877C119.203 9.80796 119.322 9.68835 119.402 9.52887C119.481 9.3694 119.521 9.20992 119.521 9.01057C119.521 8.85109 119.481 8.65174 119.402 8.49226C119.322 8.33278 119.203 8.21317 119.005 8.13343C118.806 8.05369 118.766 8.01382 118.568 8.01382ZM117.972 8.33278H118.568C118.727 8.33278 118.846 8.37265 118.925 8.45239C119.005 8.53213 119.044 8.61187 119.044 8.69161C119.044 8.77135 119.005 8.85109 118.965 8.89096C118.925 8.9707 118.806 9.01057 118.687 9.01057L119.005 9.489C119.044 9.52887 119.084 9.56874 119.124 9.60861C119.163 9.60861 119.163 9.64848 119.203 9.64848V9.68835H118.925L118.449 9.05044H118.33V9.56874C118.33 9.60861 118.369 9.64848 118.369 9.64848C118.409 9.64848 118.449 9.68835 118.528 9.68835V9.72822H117.933V9.68835C117.972 9.68835 118.012 9.68835 118.052 9.68835C118.091 9.68835 118.091 9.64848 118.091 9.64848C118.091 9.64848 118.091 9.56874 118.091 9.489V8.65174C118.091 8.572 118.091 8.53213 118.091 8.53213C118.091 8.49226 118.052 8.49226 118.052 8.49226C118.052 8.49226 118.012 8.49226 117.933 8.49226V8.33278H117.972ZM118.33 9.01057C118.449 9.01057 118.528 9.01057 118.608 8.9707C118.647 8.93083 118.727 8.93083 118.727 8.85109C118.766 8.81122 118.766 8.77135 118.766 8.69161C118.766 8.61187 118.727 8.53213 118.687 8.49226C118.647 8.45239 118.568 8.41252 118.449 8.41252C118.409 8.41252 118.369 8.41252 118.33 8.45239V9.01057Z" fill="#101828"/>
<path d="M56.5462 20.6525H56.705C57.2212 20.6924 57.4594 20.8518 57.5388 20.9316C57.6182 21.0113 57.7373 21.2904 57.7373 22.1277V25.4767C57.7373 26.2741 57.6579 26.8722 57.4594 27.231C57.1418 27.8689 56.5064 28.1879 55.5138 28.1879C54.6402 28.1879 54.0446 27.8689 53.727 27.2709C53.5682 26.9121 53.4888 26.4336 53.4888 25.7558V21.6094C53.4888 21.0512 53.6079 20.8917 53.6476 20.8518C53.727 20.812 53.9255 20.6924 54.4814 20.6525H54.6402V20.0544H50.6299V20.6525H50.7887C51.3843 20.6924 51.5431 20.812 51.6225 20.8518C51.6623 20.8917 51.7814 21.0512 51.7814 21.6094V25.6362C51.7814 26.4735 51.9402 27.1513 52.2181 27.6696C52.774 28.6265 53.7667 29.1448 55.2358 29.1448C56.705 29.1448 57.7373 28.6663 58.2535 27.6696C58.5315 27.1513 58.6903 26.3937 58.6903 25.4767V22.1277C58.6903 21.2904 58.8094 21.0512 58.8888 20.9714C58.9682 20.8518 59.1668 20.7322 59.7227 20.6924H59.8815V20.0943H56.5064V20.6525H56.5462Z" fill="#101828"/>
<path d="M48.2078 22.8054L46.818 21.9283C46.3019 21.6093 45.9445 21.3302 45.7063 21.0512C45.468 20.8119 45.3886 20.493 45.3886 20.1342C45.3886 19.7355 45.5077 19.4165 45.7857 19.2171C46.0636 18.9779 46.421 18.8583 46.818 18.8583C47.3342 18.8583 47.8504 19.0577 48.4063 19.4165C48.9225 19.7753 49.3195 20.493 49.5578 21.4499L49.5975 21.6093H50.3519L49.9549 17.8616H49.2798V17.9812C49.2401 18.1407 49.2004 18.2204 49.121 18.3001C49.0813 18.34 49.0019 18.3799 48.8828 18.3799C48.8828 18.3799 48.724 18.34 48.0489 18.1407C47.5328 17.9413 47.0563 17.8616 46.6989 17.8616C45.7857 17.8616 45.0312 18.1407 44.4356 18.6988C43.8798 19.257 43.6018 19.9747 43.6018 20.8518C43.6018 21.4897 43.84 22.0878 44.3165 22.6459C44.5548 22.925 44.9121 23.2041 45.3092 23.4832L46.6592 24.3205C47.4136 24.7989 47.9298 25.1577 48.1681 25.397C48.5254 25.7558 48.6842 26.1545 48.6842 26.6329C48.6842 27.1512 48.5254 27.5499 48.2078 27.829C47.8901 28.1081 47.493 28.2676 47.0166 28.2676C46.143 28.2676 45.4283 27.9088 44.8327 27.231C44.4754 26.8323 44.1974 26.2741 43.9195 25.5963L43.8798 25.4767H43.165L43.6812 29.2643H44.3562L44.3959 29.1049C44.3959 28.9853 44.4356 28.9055 44.5151 28.7859C44.5548 28.746 44.6342 28.7062 44.7136 28.7062C44.7136 28.7062 44.8724 28.7062 45.5871 28.9852C46.143 29.1846 46.6989 29.2643 47.1754 29.2643C48.2078 29.2643 49.0416 28.9454 49.7166 28.3872C50.3916 27.7892 50.7093 27.0316 50.7093 26.1545C50.7093 25.4767 50.5107 24.9185 50.1534 24.4401C49.7166 23.842 49.121 23.3237 48.2078 22.8054Z" fill="#101828"/>
<path d="M63.3357 25.2376C63.5343 25.2376 63.7328 25.2376 63.8916 25.2376C64.8843 25.2376 65.7181 25.0382 66.3931 24.5997C67.1078 24.1611 67.4255 23.4833 67.4255 22.5264C67.4255 21.7689 67.1078 21.1709 66.4725 20.6924C65.8769 20.2539 65.0034 20.0146 63.8519 20.0146H60.2783V20.6127H60.4371C60.993 20.6526 61.1519 20.7722 61.1916 20.812C61.2313 20.8519 61.3504 21.0513 61.3504 21.5696V27.1513C61.3504 27.7893 61.271 27.9886 61.2313 28.0684C61.1916 28.1082 61.0327 28.2278 60.4371 28.3076H60.2783V28.9056H64.249V28.3076H64.0901C63.4548 28.2677 63.2563 28.1481 63.2166 28.1082C63.1769 28.0684 63.0578 27.9089 63.0578 27.3507V25.1977C63.1372 25.1977 63.2166 25.2376 63.3357 25.2376ZM63.0578 21.131C63.0578 20.9715 63.0975 20.9317 63.0975 20.9317C63.0975 20.9317 63.1769 20.8918 63.4548 20.8918C63.971 20.8918 64.4078 20.9715 64.7652 21.131C65.3608 21.4101 65.6784 21.8885 65.6784 22.5663C65.6784 23.3238 65.4005 23.8422 64.8446 24.1212C64.5269 24.2807 64.0901 24.3605 63.5343 24.3605C63.4548 24.3605 63.4151 24.3605 63.3357 24.3605C63.296 24.3605 63.1769 24.3605 63.0578 24.3206V21.131Z" fill="#101828"/>
<path d="M73.9772 26.3938L73.9375 26.5134C73.6199 27.1912 73.3022 27.6298 72.9052 27.7893C72.5081 27.9487 71.9125 28.0684 71.0389 28.0684C70.0066 28.0684 69.7286 28.0285 69.6492 27.9886C69.6095 27.9886 69.5301 27.9487 69.5301 27.7095V24.7193H71.3169C71.9522 24.7193 72.1507 24.8389 72.2301 24.9186C72.3096 24.9984 72.4287 25.2376 72.5478 25.8356L72.5875 25.9951H73.2228V22.6461H72.5875L72.5478 22.8055C72.4287 23.3637 72.3096 23.6029 72.2301 23.6827C72.1507 23.7624 71.9522 23.882 71.3169 23.882H69.5301V21.131C69.5301 20.9715 69.5698 20.9317 69.5301 20.9317C69.5301 20.9317 69.6095 20.8918 69.7286 20.8918H71.4757C72.389 20.8918 72.7066 21.0114 72.8257 21.0911C72.9449 21.1709 73.1037 21.45 73.2625 22.0879L73.3022 22.2474H73.9772L73.9375 20.0146H66.7506V20.6127H66.9095C67.4654 20.6526 67.6639 20.7722 67.7036 20.812C67.7433 20.8519 67.8624 21.0513 67.8624 21.5696V27.3108C67.8624 27.9089 67.7433 28.0285 67.7036 28.0684C67.6242 28.1082 67.4654 28.2278 66.8698 28.2677H66.7109V28.8657H74.0169L74.6919 26.3141H73.9772V26.3938Z" fill="#101828"/>
<path d="M82.3153 28.188C82.1565 28.1082 82.0374 27.9886 81.8786 27.7893L79.4168 24.7592C80.0124 24.6395 80.5285 24.4003 80.8859 24.0814C81.3624 23.6827 81.6006 23.1644 81.6006 22.4467C81.6006 21.4101 81.0844 20.6924 80.0521 20.2937C79.5359 20.0944 78.9006 20.0146 78.1461 20.0146H74.374V20.6127H74.5329C75.0887 20.6526 75.2476 20.7722 75.327 20.812C75.3667 20.8519 75.4858 21.0513 75.4858 21.5696V27.1513C75.4858 27.8291 75.4064 27.9886 75.3667 28.0684C75.327 28.1082 75.1682 28.2278 74.5726 28.3076H74.4137V28.9056H78.3844V28.3076H78.2256C77.63 28.2677 77.4711 28.1481 77.3917 28.1082C77.352 28.0684 77.2329 27.9089 77.2329 27.3507V24.9984H77.5108L80.7271 28.9854H83.0698V28.3873H82.9109C82.6727 28.3076 82.4742 28.2677 82.3153 28.188ZM77.1932 24.1212V21.131C77.1932 20.9715 77.2329 20.9317 77.2329 20.9317C77.2329 20.9317 77.352 20.8918 77.7888 20.8918C78.305 20.8918 78.702 20.9715 79.0197 21.0911C79.5756 21.3304 79.8138 21.7689 79.8138 22.4467C79.8138 23.1245 79.5359 23.6029 78.9006 23.8421C78.5829 24.0016 77.9873 24.1212 77.1932 24.1212Z" fill="#101828"/>
<path d="M89.1455 26.1945L86.3263 20.0146H83.4674V20.6127H83.666C84.3013 20.6526 84.4998 20.7722 84.5395 20.812C84.6189 20.8519 84.6983 21.0513 84.6983 21.5696V26.8324C84.6983 27.6697 84.5792 27.9089 84.4998 28.0285C84.4204 28.1082 84.2219 28.2677 83.5866 28.3076H83.4277V28.9056H86.8425V28.3076H86.6837C86.1278 28.2677 85.969 28.1481 85.8895 28.0684C85.7704 27.9487 85.6513 27.6298 85.6513 26.8324V22.6062L88.5896 28.9854H89.0264L92.0043 22.3271V27.2311C92.0043 27.9089 91.8852 28.1082 91.8455 28.1481C91.8058 28.188 91.647 28.3076 91.0117 28.3474H90.8529V28.9455H94.8235V28.3474H94.6647C94.1088 28.3076 93.9103 28.188 93.8705 28.1481C93.8308 28.1082 93.7117 27.9487 93.7117 27.3906V21.6094C93.7117 21.0911 93.7911 20.8918 93.8705 20.8519C93.9103 20.812 94.1088 20.6924 94.6647 20.6526H94.8235V20.0545H91.9646L89.1455 26.1945Z" fill="#101828"/>
<path d="M98.2781 28.148C98.2384 28.1081 98.1193 27.9885 98.1193 27.3905V21.6094C98.1193 21.0512 98.2384 20.8917 98.2781 20.8518C98.3575 20.7721 98.5561 20.6924 99.1914 20.6525H99.3899V20.0544H95.2207V20.6525H95.4192C96.0545 20.6924 96.2531 20.7721 96.3325 20.8518C96.3722 20.8917 96.4913 21.0512 96.4913 21.6094V27.3506C96.4913 27.9487 96.3722 28.1081 96.3325 28.1081C96.2531 28.148 96.0545 28.2676 95.4192 28.3075H95.2604V28.9055H99.4296V28.3075H99.2708C98.556 28.3075 98.3178 28.1879 98.2781 28.148Z" fill="#101828"/>
<path d="M106.179 26.9518C105.822 27.3106 105.465 27.5897 105.147 27.7492C104.631 28.0682 104.035 28.1878 103.4 28.1878C102.526 28.1878 101.812 27.8688 101.256 27.2309C100.7 26.593 100.382 25.7158 100.382 24.5995C100.382 23.4034 100.66 22.4465 101.216 21.7687C101.772 21.0909 102.447 20.772 103.281 20.772C104.115 20.772 104.75 21.0909 105.266 21.689C105.544 22.008 105.743 22.4864 105.901 23.0047L105.941 23.1243H106.576L106.457 19.855H105.862L105.822 19.9746C105.782 20.0543 105.743 20.1341 105.663 20.1739C105.584 20.2138 105.504 20.2537 105.425 20.2537C105.385 20.2537 105.266 20.2138 104.631 20.0543C104.115 19.8949 103.638 19.855 103.162 19.855C101.772 19.855 100.62 20.3334 99.7866 21.2504C98.9527 22.1276 98.5557 23.2439 98.5557 24.5596C98.5557 25.8355 98.9527 26.9119 99.7469 27.7492C100.581 28.6662 101.732 29.1446 103.162 29.1446C104.035 29.1446 104.869 28.9054 105.623 28.427C106.06 28.1479 106.418 27.7891 106.735 27.4302L106.854 27.3106L106.378 26.8322L106.179 26.9518Z" fill="#101828"/>
<path d="M115.312 28.3474C115.074 28.3076 114.915 28.2677 114.756 28.188C114.597 28.1082 114.478 27.9886 114.319 27.7893L111.858 24.7592C112.453 24.6395 112.969 24.4003 113.327 24.0814C113.803 23.6827 114.041 23.1644 114.041 22.4467C114.041 21.4101 113.525 20.6924 112.493 20.2937C111.977 20.0944 111.341 20.0146 110.587 20.0146H106.854V20.6127H107.013C107.569 20.6526 107.728 20.7722 107.807 20.812C107.847 20.8519 107.966 21.0513 107.966 21.5696V27.1513C107.966 27.8291 107.887 27.9886 107.847 28.0684C107.807 28.1082 107.649 28.2278 107.053 28.3076H106.894V28.9056H110.865V28.3076H110.706C110.11 28.2677 109.952 28.1481 109.872 28.1082C109.832 28.0684 109.713 27.9089 109.713 27.3507V24.9984H109.991L113.208 28.9854H115.55V28.3873L115.312 28.3474ZM109.634 24.1212V21.131C109.634 20.9715 109.674 20.9317 109.674 20.9317C109.674 20.9317 109.793 20.8918 110.23 20.8918C110.746 20.8918 111.143 20.9715 111.46 21.0911C112.016 21.3304 112.255 21.7689 112.255 22.4467C112.255 23.1245 111.977 23.6029 111.341 23.8421C111.024 24.0016 110.428 24.1212 109.634 24.1212Z" fill="#101828"/>
</g>
</g>
<defs>
<clipPath id="clip0_120_2088">
<rect width="158" height="48" fill="white"/>
</clipPath>
<clipPath id="clip1_120_2088">
<rect width="70" height="70" fill="white" transform="translate(44 -11)"/>
</clipPath>
<clipPath id="clip2_120_2088">
<rect width="92" height="49" fill="white" transform="translate(33)"/>
</clipPath>
</defs>
</svg>
