<svg width="158" height="48" viewBox="0 0 158 48" fill="none" xmlns="http://www.w3.org/2000/svg">
<path d="M29.6441 10.5349C26.7006 9.2283 24.9453 8.72132 23.2023 8.72132C21.3729 8.72132 20.2013 9.37639 20.2013 10.3886C20.2013 13.4435 30.5648 12.5838 30.5648 19.6501C30.5648 23.5466 27.2956 25.8105 22.7537 25.8105C19.1909 25.8105 17.4365 24.8889 15.4155 23.8453V19.4742C18.3302 21.4054 20.1142 22.0875 22.3625 22.0875C24.312 22.0875 25.3635 21.4054 25.3635 20.2163C25.3635 16.8896 15 18.1083 15 10.832C15 7.32321 18.0323 4.99999 22.7537 4.99999C25.0325 4.99999 27.0882 5.47822 29.6441 6.57754V10.5349Z" fill="#101828"/>
<path d="M44.1541 24.882C42.4267 25.5083 40.9659 25.8071 39.5086 25.8071C34.6818 25.8071 31.5615 22.9961 31.5615 18.719C31.5615 14.5203 34.8029 11.5542 39.3291 11.5542C40.7272 11.5542 42.5147 11.9122 43.9442 12.4445V15.6588C42.8126 15.0578 41.5025 14.7285 40.4302 14.7285C37.8395 14.7285 36.1731 16.2851 36.1731 18.6876C36.1731 21.1241 37.8117 22.7278 40.2804 22.7278C41.3222 22.7278 42.2482 22.4891 44.1541 21.7757V24.882Z" fill="#101828"/>
<path d="M81.7851 17.144C81.9619 15.2363 83.0699 14.1335 84.7668 14.1335C86.435 14.1335 87.5657 15.2677 87.7443 17.144H81.7851ZM84.4689 11.5586C80.2336 11.5586 77.2188 14.5499 77.2188 18.7591C77.2188 22.9996 80.3538 25.8071 85.1858 25.8071C86.2564 25.8071 88.8453 25.8071 91.3114 23.9822V21.2983C89.2913 22.7374 87.9551 23.233 86.2303 23.233C83.5081 23.233 81.8434 21.8245 81.6927 19.4202H91.5544C91.7591 14.4018 88.4646 11.5586 84.4689 11.5586Z" fill="#101828"/>
<path d="M93.2227 25.5569H97.5348V11.8118H93.2227V25.5569Z" fill="#101828"/>
<path d="M109.534 21.8C108.636 22.6084 107.89 22.9324 106.969 22.9324C104.938 22.9324 103.653 21.2617 103.653 18.7573C103.653 16.0133 104.938 14.4314 107.112 14.4314C107.89 14.4314 108.905 14.7894 109.534 15.238V21.8ZM109.534 5.25348V12.4148C108.37 11.8512 107.208 11.5541 105.953 11.5541C102.02 11.5541 99.2988 14.461 99.2988 18.6675C99.2988 22.7835 102.02 25.8105 105.71 25.8105C107.174 25.8105 108.304 25.4273 109.534 24.4464V25.5527H113.845V5.25348H109.534Z" fill="#101828"/>
<path d="M120.228 17.144C120.407 15.2363 121.509 14.1335 123.204 14.1335C124.874 14.1335 126.016 15.2677 126.195 17.144H120.228ZM122.909 11.5586C118.675 11.5586 115.665 14.5499 115.665 18.7591C115.665 22.9996 118.8 25.8071 123.627 25.8071C124.696 25.8071 127.29 25.8071 129.762 23.9822V21.2983C127.739 22.7374 126.4 23.233 124.668 23.233C121.96 23.233 120.289 21.8245 120.138 19.4202H129.995C130.2 14.4018 126.903 11.5586 122.909 11.5586Z" fill="#101828"/>
<mask id="mask0_120_2088" style="mask-type:luminance" maskUnits="userSpaceOnUse" x="15" y="5" width="129" height="39">
<path d="M15 5.00004V43.0061H143.745V5.00004" fill="white"/>
</mask>
<g mask="url(#mask0_120_2088)">
<path d="M136.451 15.7474H136.515C137.794 12.8867 139.227 11.5452 140.89 11.5452C141.752 11.5452 142.495 11.8736 143.746 12.7987L142.559 16.6098C141.427 15.8955 140.683 15.5967 139.999 15.5967C138.417 15.5967 137.405 17.088 136.451 19.609V25.5386H132.134V11.797H136.451V15.7474Z" fill="#101828"/>
<path d="M97.7378 6.02941C98.1429 7.09738 97.4138 8.58696 96.115 9.35353C94.8109 10.1192 93.4328 9.87619 93.0313 8.80822C92.6218 7.73851 93.3475 6.24719 94.6498 5.48497C95.9503 4.71492 97.3293 4.95883 97.7378 6.02941Z" fill="#101828"/>
</g>
<path d="M59.685 16.8085C59.685 13.0836 57.1535 11.5583 54.6552 11.5583C52.9566 11.5583 51.5602 12.2753 50.3111 13.8563H50.2518V5.25333H45.9355V25.5168H50.2518V16.8085C51.2614 15.3476 52.1238 14.7231 53.1352 14.7231C54.4775 14.7231 55.3695 15.6778 55.3695 17.731V22.5595C56.8173 21.8155 58.2886 21.3591 59.685 21.1892V16.8085Z" fill="#101828"/>
<path d="M70.5112 11.554C68.7533 11.554 67.4109 12.2074 66.0372 13.7788V11.8119H61.7227V21.1527C63.2175 21.3016 65.1243 21.9872 66.0372 23.1196V16.7005C67.1714 14.9984 67.9763 14.4313 69.0495 14.4313C70.2716 14.4313 71.2002 15.2379 71.2002 17.1761V25.5212H75.5157V16.819C75.5157 12.771 72.6567 11.554 70.5112 11.554Z" fill="#101828"/>
<path d="M77.8984 29.4682H72.8843V33.031H77.7216V34.5598H72.8843V38.2349H78.0482V39.762H71.2031V27.9429H77.8984V29.4682Z" fill="#101828"/>
<path d="M81.9941 39.769H83.53V27.9395H81.9941V39.769Z" fill="#101828"/>
<path d="M91.1327 33.1435C92.2216 33.1435 92.8967 33.8935 92.9472 35.0721H89.036C89.2476 33.8412 89.9558 33.1435 91.1327 33.1435ZM89.0081 36.0974H94.4795C94.4795 33.2132 93.1615 31.8212 91.0978 31.8212C88.9567 31.8212 87.4697 33.404 87.4697 35.7646C87.4697 37.9223 88.813 39.9146 91.2311 39.9146C92.5491 39.9146 93.401 39.6219 94.3444 38.9955V37.5007C93.4333 38.0974 92.5491 38.4415 91.6188 38.4415C90.1309 38.4415 89.2476 37.6436 89.0081 36.0974Z" fill="#101828"/>
<path d="M104.509 34.0163C103.626 33.4118 103.036 33.2341 102.364 33.2341C100.958 33.2341 99.984 34.3125 99.984 35.8918C99.984 37.5007 101.021 38.4703 102.621 38.4703C103.279 38.4703 103.907 38.2995 104.681 37.9528V39.4677C104.164 39.7116 103.177 39.9146 102.364 39.9146C100.038 39.9146 98.4238 38.3152 98.4238 36.0294C98.4238 33.4501 99.8986 31.8212 102.258 31.8212C103.16 31.8212 103.766 32.0311 104.509 32.3578V34.0163Z" fill="#101828"/>
<path d="M111.506 31.9701H113.971V33.3543H111.506V37.3544C111.506 38.2699 112.169 38.5347 112.617 38.5347C113.173 38.5347 113.746 38.3405 114.368 37.9563V39.3971C113.829 39.6942 113.001 39.9146 112.494 39.9146C110.821 39.9146 109.976 38.8762 109.976 37.4702V33.3543H108.621V33.1827L111.506 30.3595V31.9701Z" fill="#101828"/>
<path d="M119.845 31.9701V33.7741H119.876C120.659 32.3934 121.404 31.8211 122.129 31.8211C122.754 31.8211 123.339 32.1147 123.983 32.7236L123.17 34.0773C122.702 33.6147 122.097 33.2959 121.732 33.2959C120.675 33.2959 119.845 34.3708 119.845 35.7028V39.769H118.311V31.9701H119.845Z" fill="#101828"/>
<path d="M139.722 34.0163C138.834 33.4118 138.245 33.2341 137.568 33.2341C136.166 33.2341 135.2 34.3125 135.2 35.8918C135.2 37.5007 136.237 38.4703 137.828 38.4703C138.487 38.4703 139.111 38.2995 139.896 37.9528V39.4677C139.367 39.7116 138.38 39.9146 137.568 39.9146C135.246 39.9146 133.625 38.3152 133.625 36.0294C133.625 33.4501 135.107 31.8212 137.467 31.8212C138.37 31.8212 138.97 32.0311 139.722 32.3578V34.0163Z" fill="#101828"/>
<path d="M128.055 39.769H129.59V31.9703H128.055V39.769Z" fill="#101828"/>
<mask id="mask1_120_2088" style="mask-type:luminance" maskUnits="userSpaceOnUse" x="15" y="5" width="129" height="39">
<path d="M15 5.00004V43.0061H143.745V5.00004" fill="white"/>
</mask>
<g mask="url(#mask1_120_2088)">
<path d="M129.642 29.1686C129.792 29.5449 129.529 30.0771 129.068 30.348C128.603 30.6198 128.11 30.5327 127.97 30.1555C127.83 29.7748 128.084 29.247 128.551 28.9752C129.012 28.6999 129.502 28.7879 129.642 29.1686Z" fill="#101828"/>
<path d="M60.8973 29.7992C60.6264 29.7992 60.5123 29.8437 60.4017 29.9674C60.3581 30.0153 60.3407 30.064 60.325 30.1616L58.9478 35.3847C58.6246 37.2166 56.3746 39.046 53.4416 39.046H49.364L50.0713 36.3621H52.6907C52.9581 36.3621 53.1672 36.2628 53.3423 36.0677C53.4067 35.9919 53.4904 35.8734 53.5017 35.7515L54.5888 31.1878C54.9094 29.355 56.8458 27.3305 59.778 27.3305H63.954L63.42 29.7992H60.8973ZM61.8381 32.9822L62.3042 31.2923H66.5464C67.0699 28.8419 66.6579 26.5718 65.171 25.0848C62.1613 22.0752 55.865 23.0979 51.1741 27.5858C50.4415 28.2826 49.823 29.0361 49.2594 29.8062H51.8135L51.2194 31.4996H48.168C47.8761 32.0336 47.6026 32.5632 47.3935 33.1007H51.0121L50.4328 34.7941H46.877C46.269 37.3813 46.6566 39.7942 48.1862 41.3265C51.1584 44.2978 57.4356 43.2534 62.1238 38.7663C62.9444 37.9858 63.6221 37.1435 64.2345 36.2785H60.9531L61.4531 34.5885H65.2894C65.5708 34.0511 65.8295 33.5197 66.0316 32.9822H61.8381Z" fill="#101828"/>
</g>
</svg>
