<svg version="1.2" xmlns="http://www.w3.org/2000/svg" viewBox="0 0 1600 267" width="1600" height="267"><style>.s1 { fill: #101828 } </style><g id="Round-3"><g id="CoreScientific-HP-r3-1"><g id="logo"><path id="Fill-72" fill-rule="evenodd" class="s1" d="m296.1 151.5l-62.5 107.2c-3 5.1-8.5 8.3-14.4 8.3h-134.5c-5.9 0-11.4-3.2-14.4-8.3l-68-116.8c-3.1-5.2-3.1-11.6 0-16.8l68-116.8c3-5.1 8.5-8.3 14.4-8.3h134.5c5.9 0 11.4 3.2 14.4 8.3l62.7 107.5h-62.1l-36.5-62.5h-91.5l-47.3 79.3l47.2 81.1h91.7l36.2-62.2z" /><g id="Group"><path id="Fill-74" class="s1" d="m151.1 132.6l-29.3-50.9h58.6l29.3 50.9z" /><path id="Fill-76" class="s1" d="m209.7 132.6l-29.3 51h-58.6l29.3-51z" /><path id="Fill-78" class="s1" d="m151.1 132.6l-29.3 51l-29.3-51l29.3-50.9z" /></g><path id="Fill-80" fill-rule="evenodd" class="s1" d="m448.1 86.3h54.9q7.9 0 13.5 5.7q5.6 5.6 5.6 13.5v55q0 7.9-5.6 13.6q-5.6 5.6-13.5 5.6h-54.9q-8 0-13.6-5.5q-5.5-5.6-5.5-13.7v-55q0-8 5.5-13.6q5.6-5.6 13.6-5.6zm0.9 73.2h52.8v-52.9h-52.8z" /><path id="Fill-82" fill-rule="evenodd" class="s1" d="m632.6 105.7v24.1q0 7.9-5.7 13.5q-5.7 5.7-13.6 5.7h-0.9l18.9 22.3c0.8 1 1.3 2.3 1.3 3.6c0 2.7-2.2 4.8-4.8 4.8h-13.3c-1.7 0-3.2-0.7-4.2-1.9l-24.1-28.8l-26.7 0.1v25.1c0 3.1-2.4 5.5-5.5 5.5h-9.1c-3 0-5.4-2.4-5.4-5.5v-82.3c0-3 2.4-5.4 5.4-5.4h68.4q7.9 0 13.6 5.6q5.7 5.6 5.7 13.6zm-73.1 23h52.8v-22.1h-52.8z" /><path id="Fill-84" fill-rule="evenodd" class="s1" d="m735.8 91.8v9.3c0 3-2.4 5.5-5.4 5.5h-60.3v16.3h47.5c3 0 5.4 2.5 5.4 5.5v9.3c0 3-2.4 5.5-5.4 5.5h-47.5v16.3h60.3c3 0 5.4 2.5 5.4 5.5v9.2c0 3.1-2.4 5.5-5.4 5.5h-75.1c-3 0-5.5-2.4-5.5-5.5v-82.4c0-3 2.5-5.5 5.5-5.5h75.1c3 0 5.4 2.5 5.4 5.5z" /><path id="Fill-86" fill-rule="evenodd" class="s1" d="m1115.9 91.8v9.3c0 3-2.5 5.5-5.5 5.5h-60.2v16.3h47.4c3 0 5.5 2.5 5.5 5.5v9.3c0 3-2.5 5.5-5.5 5.5h-47.4v16.3h60.2c3 0 5.5 2.5 5.5 5.5v9.2c0 3.1-2.5 5.5-5.5 5.5h-75.1c-3 0-5.4-2.4-5.4-5.5v-82.4c0-3 2.4-5.5 5.4-5.5h75.1c3 0 5.5 2.5 5.5 5.5z" /><path id="Fill-88" fill-rule="evenodd" class="s1" d="m873.7 105.5v3.2c0 3.1-2.5 5.5-5.5 5.5h-14.8v-7.6h-52.8v16.3h53.9q7.9 0 13.5 5.7q5.7 5.6 5.7 13.5v18.4q0 7.9-5.7 13.6q-5.6 5.6-13.5 5.6h-54.4c-5.2 0-10.2-1.9-13.9-5.5q-5.7-5.6-5.7-13.7v-3.2c0-3 2.5-5.5 5.5-5.5h14.6v7.7h52.8v-16.3h-53.3c-5.2 0-10.2-2-13.9-5.6q-5.7-5.6-5.7-13.7v-18.4q0-8 5.7-13.6c3.7-3.7 8.7-5.6 13.9-5.6h54.4q7.9 0 13.5 5.7q5.7 5.6 5.7 13.5z" /><path id="Fill-90" fill-rule="evenodd" class="s1" d="m970.6 106.6h-59.8v52.9h59.8c3 0 5.4 2.5 5.4 5.5v9.2c0 3.1-2.4 5.5-5.4 5.5h-60.7q-8 0-13.6-5.5q-5.6-5.6-5.6-13.7v-55q0-8 5.6-13.6q5.6-5.6 13.6-5.6h60.7c3 0 5.4 2.5 5.4 5.5v9.3c0 3-2.4 5.5-5.4 5.5z" /><path id="Fill-92" fill-rule="evenodd" class="s1" d="m407.1 106.6h-59.8v52.9h59.8c3 0 5.4 2.5 5.4 5.5v9.2c0 3.1-2.4 5.5-5.4 5.5h-60.7q-8 0-13.6-5.5q-5.5-5.6-5.5-13.7v-55q0-8 5.5-13.6q5.6-5.6 13.6-5.6h60.7c3 0 5.4 2.5 5.4 5.5v9.3c0 3-2.4 5.5-5.4 5.5z" /><path id="Fill-94" fill-rule="evenodd" class="s1" d="m1594.5 106.6h-59.7v52.9h59.7c3.1 0 5.5 2.5 5.5 5.5v9.2c0 3.1-2.4 5.5-5.5 5.5h-60.6q-8.1 0-13.6-5.5q-5.6-5.6-5.6-13.7v-55q0-8 5.6-13.6q5.5-5.6 13.6-5.6h60.6c3.1 0 5.5 2.5 5.5 5.5v9.3c0 3-2.4 5.5-5.5 5.5z" /><path id="Fill-96" fill-rule="evenodd" class="s1" d="m992.9 174.2v-82.4c0-3 2.4-5.5 5.4-5.5h9.3c3 0 5.4 2.5 5.4 5.5v82.4c0 3.1-2.4 5.5-5.4 5.5h-9.3c-3 0-5.4-2.4-5.4-5.5z" /><path id="Fill-98" fill-rule="evenodd" class="s1" d="m1204.8 148.6v-56.8c0-3 2.4-5.5 5.4-5.5h9.4c3 0 5.5 2.5 5.5 5.5v82.4c0 3.1-2.5 5.5-5.5 5.5h-12.7c-1.6 0-3.1-0.7-4.2-1.9l-50.7-60.6v57c0 3.1-2.5 5.5-5.5 5.5h-9.1c-3 0-5.5-2.4-5.5-5.5v-82.4c0-3 2.5-5.5 5.5-5.5h12.7c1.6 0 3.1 0.7 4.2 2z" /><path id="Fill-100" fill-rule="evenodd" class="s1" d="m1243.6 86.3h82.2c3.1 0 5.5 2.5 5.5 5.5v9.3c0 3-2.4 5.5-5.5 5.5h-31v67.6c0 3.1-2.4 5.5-5.4 5.5h-9.3c-3 0-5.5-2.4-5.5-5.5v-67.6h-31c-3 0-5.4-2.5-5.4-5.5v-9.3c0-3 2.4-5.5 5.4-5.5z" /><path id="Fill-102" fill-rule="evenodd" class="s1" d="m1344.4 174.2v-82.4c0-3 2.4-5.5 5.4-5.5h9.3c3 0 5.4 2.5 5.4 5.5v82.4c0 3.1-2.4 5.5-5.4 5.5h-9.3c-3 0-5.4-2.4-5.4-5.5z" /><path id="Fill-104" fill-rule="evenodd" class="s1" d="m1479.1 174.2v-82.4c0-3 2.4-5.5 5.5-5.5h9.2c3 0 5.5 2.5 5.5 5.5v82.4c0 3.1-2.5 5.5-5.5 5.5h-9.2c-3.1 0-5.5-2.4-5.5-5.5z" /><path id="Fill-106" fill-rule="evenodd" class="s1" d="m1385.5 86.3h75.1c3 0 5.4 2.5 5.4 5.5v9.3c0 3-2.4 5.5-5.4 5.5h-60.3v16.3h47.4c3.1 0 5.5 2.5 5.5 5.5v9.3c0 3-2.4 5.5-5.5 5.5h-47.4v31c0 3.1-2.4 5.5-5.5 5.5h-9.3c-3.1 0-5.5-2.4-5.5-5.5v-82.4c0-3 2.4-5.5 5.5-5.5z" /></g></g></g></svg>