<svg width="158" height="48" viewBox="0 0 158 48" fill="none" xmlns="http://www.w3.org/2000/svg">
<g clip-path="url(#clip0_120_2088)">
<path d="M54.3129 8.24454C52.7915 8.51343 50.9264 9.34454 50.1166 10.1268C49.7485 10.469 49.2086 11.3001 48.8896 12.009C48.3497 13.2068 48.3252 13.4757 48.3252 19.7334C48.3252 25.7957 48.3497 26.2845 48.8405 27.3112C49.5276 28.7779 50.4847 29.6823 52.1289 30.4645L53.4786 31.1001H63.4172H73.3559L74.7056 30.4645C76.3497 29.6823 77.3068 28.7779 77.9939 27.3112C78.4847 26.2845 78.5092 25.7957 78.5092 19.7334C78.5092 13.4268 78.4847 13.2312 77.9203 11.9601C77.2086 10.3957 76.1534 9.44232 74.2884 8.70899C72.9142 8.14677 72.6197 8.14677 64.1534 8.09788C59.3681 8.07343 54.9264 8.12232 54.3129 8.24454ZM69.8957 14.3557C71.1227 14.9668 71.5399 16.0179 71.6872 18.7068C71.8589 21.689 71.4908 23.7912 70.6565 24.6223L70.043 25.2334H63.4418H56.8405L56.2025 24.6468C55.4418 23.9379 55.0737 22.3001 55.0737 19.7823C55.0982 16.2379 55.6872 14.7957 57.3068 14.209C58.5829 13.7201 68.9142 13.8668 69.8957 14.3557Z" fill="black"/>
<path d="M19.2451 19.5867V30.9778H31.2451C41.3801 30.9778 43.3924 30.9289 44.3003 30.6111C46.5825 29.8044 47.4414 28.2644 47.466 25.0378C47.466 21.8844 46.5335 20.1978 44.6194 19.8311C44.1531 19.7578 43.785 19.6111 43.785 19.5133C43.785 19.44 44.2022 19.1711 44.7175 18.9511C46.0427 18.34 46.558 17.3133 46.6807 15.04C46.877 11.6422 45.8954 9.78445 43.3678 8.83112C42.2881 8.41556 41.1347 8.36667 30.7298 8.29334L19.2451 8.22001V19.5867ZM39.3433 14.2089C39.6868 14.5267 39.8586 14.9667 39.8586 15.6022C39.8586 17.24 39.6623 17.2889 32.3249 17.2889H25.8709V15.6267C25.8709 14.6978 25.9445 13.8667 26.0427 13.7689C26.1408 13.6711 29.0611 13.6222 32.5212 13.6711C38.3126 13.7445 38.877 13.7933 39.3433 14.2089ZM39.1715 22.1778C40.693 22.6178 41.1101 24.1822 39.9322 25.0867C39.3187 25.6 39.0733 25.6 32.6439 25.5511L25.9936 25.4778L25.92 24.0356C25.8709 23.2533 25.8954 22.4467 25.969 22.2756C26.0672 22.0067 27.2697 21.9333 32.1776 21.9333C35.6378 21.9333 38.6562 22.0556 39.1715 22.1778Z" fill="black"/>
<path d="M76.9141 8.68445C76.9141 8.78223 79.7361 12.1311 83.1717 16.1156L89.4294 23.4V27.1889V30.9778H92.865H96.3006V27.1644V23.3511L102.509 16.1644C105.896 12.2044 108.742 8.85556 108.767 8.73334C108.816 8.58667 107.245 8.48889 104.693 8.48889H100.546L96.7668 13.0111C94.7055 15.5044 92.9141 17.5333 92.8159 17.5333C92.7177 17.5333 90.9509 15.5044 88.8895 13.0111L85.1595 8.48889H81.0368C78.7791 8.48889 76.9141 8.56223 76.9141 8.68445Z" fill="black"/>
<path d="M109.552 19.9532V31.4666H121.159C130.754 31.4666 133.012 31.3932 134.214 31.0999C136.276 30.5621 137.503 29.6577 138.337 28.0688L139 26.7243V20.0021C139 12.3266 138.926 11.9843 137.061 10.3954C135.073 8.70878 134.656 8.65989 121.405 8.56211L109.552 8.43989V19.9532ZM130.803 14.7221C132.178 15.2843 132.423 16.2132 132.325 20.3688L132.251 23.8888L131.441 24.671L130.656 25.4777L123.539 25.551L116.423 25.6243V19.9777V14.3554H123.171C128.546 14.3554 130.116 14.4288 130.803 14.7221Z" fill="black"/>
<path d="M32.4473 34.5222C30.6314 35.5244 30.3369 38.9467 31.932 40.4133C32.3983 40.8533 32.84 41 33.6498 41C35.0486 41 35.6375 40.6578 36.0792 39.6556C36.5455 38.5067 36.521 38.3111 35.8338 38.3111C35.4167 38.3111 35.1222 38.5311 34.9013 38.9711C34.4596 39.9 33.2081 40.0467 32.6437 39.24C31.6375 37.8222 32.6191 35.1089 34.0424 35.4756C34.386 35.5489 34.7541 35.8422 34.8277 36.1111C34.9259 36.4533 35.1958 36.6 35.7111 36.6C36.3737 36.6 36.4473 36.5267 36.3001 36.0378C35.8338 34.5467 33.8216 33.74 32.4473 34.5222Z" fill="black"/>
<path d="M41.9196 34.4C40.4472 34.9867 39.7355 37.3089 40.4472 39.1667C40.9625 40.4622 41.7233 41 43.0975 41C44.3736 41 45.1834 40.4867 45.6496 39.3867C46.9012 36.4044 44.5944 33.3244 41.9196 34.4ZM43.7846 35.6222C44.3736 35.94 44.8644 37.4311 44.6435 38.2622C44.2754 39.7533 42.7294 40.3156 41.9687 39.24C41.3797 38.4089 41.4533 36.6244 42.1159 35.94C42.7049 35.3289 43.0975 35.2556 43.7846 35.6222Z" fill="black"/>
<path d="M69.4047 34.3756C67.466 35.2067 66.9998 38.6533 68.5949 40.2667C69.2084 40.8778 69.5519 41 70.509 41C71.8587 41 72.5212 40.5844 73.0857 39.4356C73.7973 37.92 73.4538 35.8178 72.3004 34.8156C71.7114 34.2778 70.1654 34.0578 69.4047 34.3756ZM71.2697 35.6222C71.5396 35.7689 71.8587 36.2822 71.9814 36.7711C72.4231 38.3844 71.7605 39.7778 70.5335 39.7778C68.4722 39.7778 68.4476 35.4267 70.4844 35.3778C70.6562 35.3778 71.0243 35.5 71.2697 35.6222Z" fill="black"/>
<path d="M110.779 34.4489C109.257 35.2556 108.619 37.5289 109.405 39.3867C109.871 40.4867 110.681 41 111.957 41C113.331 41 114.092 40.4622 114.607 39.1667C115.466 36.8933 114.362 34.4978 112.374 34.2533C111.81 34.18 111.122 34.2778 110.779 34.4489ZM112.914 35.9156C113.356 36.3067 113.478 36.6978 113.478 37.5778C113.478 38.9711 112.938 39.7778 112.03 39.7778C110.754 39.7778 110.018 38.2867 110.533 36.7467C111 35.3533 111.957 35.0111 112.914 35.9156Z" fill="black"/>
<path d="M49.9199 37.7V41H50.6561C51.3923 41 51.3923 41 51.3923 39.6311V38.2867L52.2758 38.36C53.2819 38.4333 53.5027 38.7267 53.7236 40.0711C53.8463 40.8533 53.969 41 54.4843 41C55.0733 41 55.0978 40.9756 54.9261 39.7044C54.8279 39.02 54.6561 38.3111 54.558 38.1644C54.4107 37.9933 54.4843 37.6022 54.7052 37.1867C55.196 36.2333 55.1715 35.8178 54.558 35.0356C54.0917 34.4489 53.9199 34.4 51.9813 34.4H49.9199V37.7ZM53.3555 35.72C53.5027 35.9156 53.6009 36.3311 53.5518 36.6489C53.5027 37.1133 53.3064 37.2111 52.4475 37.2844L51.3923 37.3578V36.38C51.3923 35.4022 51.4169 35.3778 52.2267 35.3778C52.6684 35.3778 53.1837 35.5489 53.3555 35.72Z" fill="black"/>
<path d="M59.2451 37.7V41H59.8586C60.423 41 60.4721 40.9267 60.4721 39.7778V38.5556H61.5764C63.6378 38.5556 64.6439 36.6 63.3924 35.0356C62.9261 34.4489 62.7543 34.4 61.0611 34.4H59.2451V37.7ZM62.2881 35.7689C62.7298 36.1844 62.7543 36.3556 62.5335 36.9422C62.4353 37.2111 62.0672 37.3333 61.4292 37.3333C60.4967 37.3333 60.4721 37.3089 60.4721 36.5267C60.4721 36.0622 60.5457 35.6222 60.6439 35.5489C60.9384 35.2311 61.8954 35.3778 62.2881 35.7689Z" fill="black"/>
<path d="M77.4043 37.7V41H78.1405C78.8767 41 78.8767 40.9756 78.8767 39.6556V38.3111H79.6865C80.6681 38.3111 81.0853 38.6778 81.0853 39.5578C81.0853 40.5844 81.3307 41 81.9687 41C82.5086 41 82.5331 40.9511 82.3859 39.8511C82.3123 39.1911 82.1405 38.4822 82.0178 38.2133C81.846 37.92 81.8706 37.6756 82.0423 37.5044C82.1896 37.3578 82.3123 36.7711 82.3123 36.2333C82.3123 34.6933 81.846 34.4 79.4166 34.4H77.4043V37.7ZM80.7908 35.6711C81.208 36.0867 81.1589 37.0156 80.6926 37.1867C80.4718 37.26 79.981 37.3333 79.5883 37.3333C78.9258 37.3333 78.8767 37.2844 78.8767 36.3556C78.8767 35.4022 78.9012 35.3778 79.6865 35.3778C80.1282 35.3778 80.619 35.5 80.7908 35.6711Z" fill="black"/>
<path d="M87.2211 37.3822C86.6321 39.0444 86.1168 40.5356 86.0431 40.7067C85.9695 40.9022 86.1904 41 86.6812 41C87.3192 41 87.4419 40.8778 87.5892 40.2667C87.7364 39.5822 87.81 39.5333 88.9389 39.5333C90.0431 39.5333 90.1168 39.5822 90.264 40.2667C90.3867 40.8778 90.5094 41 91.1229 41H91.8591L90.7303 37.7C89.6751 34.5222 89.6014 34.4 88.9389 34.4C88.3008 34.4 88.2272 34.5467 87.2211 37.3822ZM89.356 37.3333L89.6014 38.3111H88.8898C88.3008 38.3111 88.1781 38.2133 88.3008 37.92C88.3744 37.7 88.5217 37.26 88.5953 36.9422C88.8162 36.0867 89.037 36.2089 89.356 37.3333Z" fill="black"/>
<path d="M95.0732 35.0111C95.0732 35.5489 95.1714 35.6222 95.9321 35.6222H96.791V38.3111V41H97.4045H98.018V38.3356V35.6467L98.9505 35.5733C99.6867 35.5244 99.8831 35.4022 99.9321 34.9378C100.006 34.4 99.9567 34.4 97.5518 34.4H95.0732V35.0111Z" fill="black"/>
<path d="M103.662 37.7V41H104.276H104.889V37.7V34.4H104.276H103.662V37.7Z" fill="black"/>
<path d="M118.877 37.7V41H119.49C120.079 41 120.079 40.9511 120.153 38.8489L120.227 36.7222L121.405 38.8489C122.484 40.78 122.656 41 123.319 41H124.03V37.7V34.4H123.417C122.828 34.4 122.828 34.4489 122.754 36.5267L122.681 38.6778L121.503 36.5267C120.423 34.62 120.251 34.4 119.589 34.4H118.877V37.7Z" fill="black"/>
</g>
<defs>
<clipPath id="clip0_120_2088">
<rect width="120" height="33" fill="white" transform="translate(19 8)"/>
</clipPath>
</defs>
</svg>
