<svg width="158" height="48" viewBox="0 0 158 48" fill="none" xmlns="http://www.w3.org/2000/svg">
<path d="M52.7228 4.58136C51.532 4.9184 49.901 6.44803 49.202 7.84803C48.6066 9.04062 48.5807 9.32581 48.5031 16.2999C48.4513 20.9406 48.5289 23.974 48.7102 24.8814C49.0985 26.748 50.1858 28.2258 51.8685 29.1073L53.2406 29.8332L62.5086 29.911L71.7508 29.9888V27.6554V25.2962H62.9487C54.4833 25.2962 54.1208 25.2703 53.6289 24.7777C53.1371 24.2851 53.1112 23.9221 53.1112 17.1554C53.1112 10.5443 53.1371 10.0258 53.6031 9.45544L54.0949 8.83322L65.3822 8.75544L76.6696 8.67766V19.3332V29.9628H78.9995H81.3295V19.3332V8.70359H84.1772H86.999L87.0767 17.2073L87.1543 25.7369L87.931 27.0073C88.5523 27.9665 89.0959 28.4591 90.2609 29.0554L91.7883 29.8332L101.134 29.911C107.166 29.9628 110.739 29.8851 111.205 29.7295C112.525 29.211 112.68 28.2258 112.603 21.8999L112.525 16.2221L111.8 15.5221L111.101 14.7962L103.335 14.7184L95.568 14.6406V16.9999V19.3332H101.781H107.994V22.3147V25.2962H100.306C96.0599 25.2962 92.4614 25.1925 92.3061 25.0888C91.5295 24.5703 91.4259 23.6628 91.4259 16.9221C91.4259 10.5443 91.4518 10.0258 91.9178 9.45544L92.4097 8.83322L102.403 8.75544L112.395 8.67766V6.49988V4.29618L82.9604 4.32211C66.7284 4.32211 53.1371 4.45174 52.7228 4.58136Z" fill="black"/>
<path d="M29.1906 39.0888C28.9058 39.4777 28.7764 40.2555 28.7764 41.2925C28.7764 43.5999 29.1906 43.9629 31.7535 43.9629C33.5139 43.9629 33.6951 43.911 33.6951 43.4444C33.6951 42.9777 33.5139 42.9259 31.7535 42.9259H29.8119V41.2407V39.5555H31.7535C33.5139 39.5555 33.6951 39.5036 33.6951 39.037C33.6951 38.5703 33.5139 38.5184 31.65 38.5184C29.8119 38.5184 29.5271 38.5703 29.1906 39.0888Z" fill="black"/>
<path d="M40.8142 39.1666C40.2705 39.6851 40.167 40.0481 40.167 41.2407C40.167 42.4333 40.2705 42.7962 40.8142 43.3147C41.332 43.8592 41.6944 43.9629 43.0147 43.9629C44.335 43.9629 44.6974 43.8592 45.2152 43.3147C45.7589 42.7962 45.8624 42.4333 45.8624 41.2407C45.8624 40.0481 45.7589 39.6851 45.2152 39.1666C44.6974 38.6221 44.335 38.5184 43.0147 38.5184C41.6944 38.5184 41.332 38.6221 40.8142 39.1666ZM44.568 39.8147C44.8787 40.1259 45.0858 40.6703 45.0858 41.2407C45.0858 42.4851 44.335 43.1851 43.0147 43.1851C41.6944 43.1851 40.9436 42.4851 40.9436 41.2407C40.9436 39.9962 41.6944 39.2962 43.0147 39.2962C43.7137 39.2962 44.2315 39.4777 44.568 39.8147Z" fill="black"/>
<path d="M52.775 38.6999C52.6714 38.7777 52.5938 40.0221 52.5938 41.4221C52.5938 43.7814 52.6196 43.9629 53.1115 43.9629C53.5775 43.9629 53.6293 43.7814 53.6293 42.0962V40.2296L55.545 42.1221C56.6323 43.1851 57.5902 43.937 57.7455 43.8592C57.9267 43.7296 58.0303 42.6925 58.0303 41.0851C58.0303 38.6999 58.0044 38.5184 57.5125 38.5184C57.0465 38.5184 56.9948 38.6999 56.9948 40.3851V42.2518L55.1049 40.3851C53.1892 38.4666 53.0597 38.3888 52.775 38.6999Z" fill="black"/>
<path d="M65.3303 38.9333C64.9937 39.1666 64.7607 39.5814 64.7607 40.0221C64.7607 41.2666 65.1232 41.4999 67.1425 41.6296C68.8252 41.7333 69.0323 41.811 69.0323 42.2777C69.0323 42.7444 68.8252 42.7962 66.9095 42.874C64.9678 42.9518 64.7607 43.0036 64.7607 43.4444C64.7607 43.911 64.942 43.9629 66.78 43.9629C69.2394 43.9629 69.9384 43.574 69.9384 42.2777C69.9384 41.137 69.4206 40.8518 67.4014 40.8518C66.2105 40.8518 65.8222 40.7481 65.6927 40.437C65.408 39.711 65.7704 39.5555 67.6343 39.5555C69.2394 39.5555 69.4206 39.5036 69.4206 39.037C69.4206 38.5703 69.2394 38.5184 67.6602 38.5184C66.4953 38.5184 65.7186 38.6481 65.3303 38.9333Z" fill="black"/>
<path d="M76.6699 40.9814C76.6699 43.8851 76.7476 43.9629 79.4917 43.9629C81.1486 43.9629 81.3298 43.911 81.3298 43.4444C81.3298 42.9777 81.1486 42.9259 79.3882 42.9259H77.4466V41.2407V39.5555H79.3623C81.045 39.5555 81.278 39.5036 81.4075 39.037C81.5369 38.5444 81.4075 38.5184 79.1034 38.5184H76.6699V40.9814Z" fill="black"/>
<path d="M88.2418 38.6999C88.1382 38.7777 88.0605 40.0221 88.0605 41.4221C88.0605 43.7814 88.0864 43.9629 88.5783 43.9629C89.0443 43.9629 89.0961 43.7814 89.0961 42.0184V40.074L90.9342 42.0184C91.9438 43.0814 92.9534 43.9629 93.1347 43.9629C93.4194 43.9629 93.4971 43.3666 93.4971 41.2407C93.4971 38.9851 93.4194 38.5184 93.1088 38.5184C92.7981 38.5184 92.7204 38.8814 92.7204 40.3333C92.7204 41.3184 92.6428 42.1481 92.5133 42.1481C92.4098 42.1481 91.5037 41.3184 90.5199 40.3333C88.7078 38.4925 88.5524 38.3888 88.2418 38.6999Z" fill="black"/>
<path d="M100.798 38.9333C100.099 39.4259 100.047 40.5925 100.695 41.1888C100.979 41.4481 101.73 41.6296 102.817 41.6814C104.345 41.7592 104.5 41.811 104.578 42.3296C104.655 42.8999 104.604 42.9259 102.455 42.9259C100.41 42.9259 100.229 42.9777 100.229 43.4444C100.229 43.911 100.41 43.9629 102.403 43.9629C104.474 43.9629 104.63 43.911 105.121 43.2629C106.209 41.9147 105.277 40.8518 103.05 40.8518C101.575 40.8518 100.85 40.4629 101.212 39.8925C101.316 39.711 102.196 39.5555 103.206 39.5036C104.681 39.4518 105.018 39.3481 105.096 38.9592C105.173 38.5703 104.966 38.5184 103.283 38.5184C101.989 38.5184 101.186 38.6481 100.798 38.9333Z" fill="black"/>
<path d="M112.137 40.3592C112.137 41.3703 112.266 42.4073 112.396 42.6925C112.836 43.4962 114.052 43.9629 115.761 43.9629H117.314V41.2407C117.314 38.9851 117.237 38.5184 116.926 38.5184C116.615 38.5184 116.538 38.9333 116.538 40.7221V42.9259H115.14C113.302 42.9259 112.913 42.4333 112.913 40.1518C112.913 38.8814 112.836 38.5184 112.525 38.5184C112.214 38.5184 112.137 38.9073 112.137 40.3592Z" fill="black"/>
<path d="M124.563 39.037C124.278 39.3221 124.045 39.8407 124.045 40.1518C124.045 41.1629 124.796 41.6036 126.634 41.6814C128.135 41.7592 128.316 41.811 128.394 42.3296C128.472 42.874 128.368 42.8999 126.323 42.9777C124.537 43.0555 124.174 43.1333 124.097 43.4962C124.019 43.911 124.252 43.9629 126.168 43.9629C128.006 43.9629 128.446 43.8851 128.912 43.4444C129.559 42.8221 129.637 42.1999 129.119 41.474C128.834 41.111 128.342 40.9555 126.97 40.8518C125.391 40.7481 125.21 40.6703 125.132 40.1259C125.055 39.5814 125.132 39.5555 126.996 39.5555C128.782 39.5555 128.964 39.5036 128.964 39.037C128.964 38.5703 128.782 38.5184 127.022 38.5184C125.417 38.5184 124.977 38.6221 124.563 39.037Z" fill="black"/>
<path d="M77.9639 41.2407C77.9639 41.5519 78.3004 41.6296 79.5172 41.6296C80.7339 41.6296 81.0705 41.5519 81.0705 41.2407C81.0705 40.9296 80.7339 40.8519 79.5172 40.8519C78.3004 40.8519 77.9639 40.9296 77.9639 41.2407Z" fill="black"/>
</svg>
